<svg xmlns:dc="http://purl.org/dc/elements/1.1/" xmlns:cc="http://creativecommons.org/ns#" xmlns:rdf="http://www.w3.org/1999/02/22-rdf-syntax-ns#" xmlns:svg="http://www.w3.org/2000/svg" xmlns="http://www.w3.org/2000/svg" id="svg1" width="200px" height="200px" version="1.1">

  <g id="g29875" transform="translate(-170,-450)">
    <ellipse style="fill:#000000;fill-opacity:0.26422759;fill-rule:evenodd;stroke:#000000;stroke-width:0;stroke-linecap:butt;stroke-linejoin:miter;stroke-miterlimit:4;stroke-opacity:1" id="path1374" transform="matrix(0.868151,-0.01588399,0.02344345,0.782742,-102.9452,160.1989)" cx="395.9798" cy="604.67523" rx="70.710678" ry="13.700194"/>
    <path style="fill:#7647a5;fill-opacity:1;fill-rule:evenodd;stroke:#000000;stroke-width:1.80329859;stroke-linecap:butt;stroke-linejoin:miter;stroke-miterlimit:4;stroke-opacity:1" d="m 240.36602,479.1514 c -43.733,6.37158 -24.91983,57.28919 -33.03207,69.55687 -20.67707,19.46903 -24.30049,62.35701 -4.3884,77.75601 22.0274,12.5625 70.7644,13.66295 84.48664,-6.89514 14.00078,-16.624 11.53581,-47.41665 -8.7066,-71.87699 -8.46081,-12.72236 13.69272,-68.39982 -38.35957,-68.54075 z" id="path1375"/>
    <path style="fill:#b2b2b2;fill-opacity:1;fill-rule:evenodd;stroke:#000000;stroke-width:0;stroke-linecap:butt;stroke-linejoin:miter;stroke-miterlimit:4;stroke-opacity:1" d="m 280.36388,598.42452 c 0.14749,11.98674 -7.0545,23.69483 -17.88277,28.87107 -10.43205,5.23828 -23.7394,3.84304 -32.86264,-3.43842 -9.32929,-7.11225 -14.03993,-19.58662 -11.88633,-31.10034 1.99679,-12.117 11.5833,-22.60491 23.56327,-25.45105 10.90034,-2.81848 23.10504,0.9245 30.60953,9.30237 5.42805,5.87485 8.4953,13.8204 8.45894,21.81637 z" id="path1376"/>
    <path style="fill:#7647a5;fill-opacity:1;fill-rule:evenodd;stroke:#000000;stroke-width:1.875;stroke-linecap:butt;stroke-linejoin:miter;stroke-miterlimit:4;stroke-opacity:1" d="m 278.85434,547.01448 c 7.96864,-9.13544 -0.0949,-19.08488 -2.59119,-27.8581 -4.38472,-11.26412 -3.49419,-26.17301 -1.29287,-25.68319 18.15278,3.6869 36.90565,49.39093 16.01203,76.52568" id="path1377"/>
    <g id="g25384" transform="translate(121.895,27.33915)">
      <path style="fill:#f6d1fe;fill-opacity:1;fill-rule:evenodd;stroke:#000000;stroke-width:1.74635816;stroke-linecap:butt;stroke-linejoin:miter;stroke-miterlimit:4;stroke-opacity:1" d="m 101.37293,493.79795 c 6.01241,-6.5564 16.22593,12.38104 24.0702,4.2314 9.37419,7.83241 10.06126,-7.41094 18.57035,-4.09597 10.7884,8.41181 -3.32675,37.22509 -10.06557,37.27629 -1.83092,0.0139 -20.56339,-2.77373 -26.34436,-8.94808 -4.75029,-5.07352 -2.82921,-1.98539 -7.54166,-3.95579 -9.12041,-3.81349 -7.528722,-19.27707 1.31104,-24.50785 z" id="path1379"/>
      <path style="fill:none;fill-opacity:0.75;fill-rule:evenodd;stroke:#000000;stroke-width:1.75;stroke-linecap:butt;stroke-linejoin:miter;stroke-miterlimit:4;stroke-opacity:1" d="m 101.25,502.98718 c 0.95175,1.3292 -0.27957,2.82361 -0.24116,4.21946 0.41732,1.83976 2.18731,2.98715 2.7644,4.77239 0.40543,1.40113 0.19353,2.90478 0.56781,4.32724 0.39493,1.74683 0.40378,3.65304 2.04562,4.65791" id="path25386"/>
    </g>
    <path style="fill:#ffffff;fill-opacity:1;fill-rule:evenodd;stroke:#000000;stroke-width:1.875;stroke-linecap:butt;stroke-linejoin:miter;stroke-miterlimit:4;stroke-opacity:1" d="m 247.68074,526.18082 c 2.63901,4.69805 9.5546,5.15285 12.34236,1.90862 7.13839,-8.30722 2.12525,-31.95488 -4.76436,-31.34119 -4.09166,0.36447 -6.57854,2.39778 -7.87355,8.91101" id="path25387"/>
    <path style="fill:#ffffff;fill-opacity:1;fill-rule:evenodd;stroke:#000000;stroke-width:1.95909238;stroke-linecap:butt;stroke-linejoin:miter;stroke-miterlimit:4;stroke-opacity:1" d="m 247.95782,505.10488 c -0.44093,-10.86335 -3.98802,-10.19134 -7.43283,-9.85636 -8.18332,0.79579 -11.02905,25.48476 -7.64162,32.06821 2.63901,5.12891 13.29407,5.45377 14.88718,-1.66995" id="path25388"/>
    <path id="path25389" style="fill:#ffffff;fill-opacity:1;fill-rule:evenodd;stroke:#000000;stroke-width:0;stroke-linecap:butt;stroke-linejoin:miter;stroke-miterlimit:4;stroke-opacity:1" d="m 248.51025,507.2041 c -0.75088,-3.61185 2.37116,-8.4563 6.46282,-9.60203 6.65523,-1.47306 11.12149,21.23709 4.6081,29.93494 -2.78776,3.24423 -7.85516,2.71686 -11.74503,-1.74318 -2.37524,5.25236 -10.25014,6.37166 -14.06103,1.78963 -3.38743,-6.58345 -0.93232,-30.64741 7.251,-31.4432 3.44481,-0.33498 4.8335,-0.68339 7.48414,11.06384 z"/>
    <path style="fill:#000000;fill-opacity:1;fill-rule:evenodd;stroke:#000000;stroke-width:0.10403067pt;stroke-linecap:butt;stroke-linejoin:miter;stroke-opacity:1" d="m 245.45388,519.05628 c -0.86781,0 -1.57404,1.31824 -1.57404,2.94008 0,1.62185 0.70623,2.93628 1.57404,2.93629 0.8678,0 1.57124,-1.31444 1.57124,-2.93629 0,-1.62184 -0.70344,-2.94007 -1.57124,-2.94008 z m -0.60176,1.33537 c 0.39405,0 0.71319,0.46289 0.71319,1.03566 0,0.57278 -0.31914,1.03946 -0.71319,1.03946 -0.39405,0 -0.71319,-0.46668 -0.71319,-1.03946 0,-0.57277 0.31914,-1.03566 0.71319,-1.03566 z" id="path1384"/>
    <g id="g1385" transform="translate(120.5914,17.15609)">
      <path style="fill:#655179;fill-opacity:1;fill-rule:evenodd;stroke:#000000;stroke-width:1.92532539;stroke-linecap:butt;stroke-linejoin:miter;stroke-miterlimit:4;stroke-opacity:1" d="m 138.63112,573.92884 c 6.89782,9.14572 10.4864,-6.22342 16.7754,1.76777 5.20166,6.40816 8.79435,-6.64728 14.44551,-0.44194 8.6151,9.45994 -2.52503,44.60558 -20.03731,45.07806 -14.66502,0.10847 -21.89286,-23.39961 -22.15389,-35.9016 -0.13935,-6.45293 6.93148,-14.32942 10.97029,-10.50229 z" id="path1386"/>
      <path style="fill:#f6d1fe;fill-opacity:1;fill-rule:evenodd;stroke:#000000;stroke-width:0;stroke-linecap:butt;stroke-linejoin:miter;stroke-miterlimit:4;stroke-opacity:1" d="m 168.71993,575.82189 c -3.45516,-3.6717 -3.92703,10.11659 -11.94297,2.52681 -8.07664,-8.09763 -4.50798,10.19929 -16.32582,-1.26111 -11.02717,-5.17788 -3.25335,40.53802 9.8313,42.14499 15.27966,-0.50173 28.14446,-34.41197 18.43749,-43.41069 z" id="path1387"/>
    </g>
    <g id="g1388" transform="translate(123.4039,16.40165)">
      <path style="fill:#655179;fill-opacity:1;fill-rule:evenodd;stroke:#000000;stroke-width:1.92532539;stroke-linecap:butt;stroke-linejoin:miter;stroke-miterlimit:4;stroke-opacity:1" d="m 94.773886,575.15663 c 6.897824,9.14572 10.486404,-6.22342 16.775404,1.76777 5.20166,6.40816 8.79435,-6.64728 14.44551,-0.44194 8.6151,9.45994 -2.52503,44.60558 -20.03731,45.07806 -14.665022,0.10847 -21.892861,-23.39961 -22.153893,-35.9016 -0.139346,-6.45293 6.931487,-14.32942 10.970289,-10.50229 z" id="path1389"/>
      <path style="fill:#f6d1fe;fill-opacity:1;fill-rule:evenodd;stroke:#000000;stroke-width:0;stroke-linecap:butt;stroke-linejoin:miter;stroke-miterlimit:4;stroke-opacity:1" d="m 124.8627,577.04968 c -3.45516,-3.6717 -3.92703,10.11659 -11.94297,2.52681 -8.07664,-8.09763 -4.50798,10.19929 -16.32582,-1.26111 -11.027175,-5.17788 -3.253355,40.53802 9.8313,42.14499 15.27966,-0.50173 28.14446,-34.41197 18.43749,-43.41069 z" id="path1390"/>
    </g>
    <path style="fill:#000000;fill-opacity:1;fill-rule:evenodd;stroke:#000000;stroke-width:0.10403067pt;stroke-linecap:butt;stroke-linejoin:miter;stroke-opacity:1" d="m 250.76638,518.90003 c -0.86781,0 -1.57404,1.31824 -1.57404,2.94008 0,1.62185 0.70623,2.93628 1.57404,2.93629 0.8678,0 1.57124,-1.31444 1.57124,-2.93629 0,-1.62184 -0.70344,-2.94007 -1.57124,-2.94008 z m -0.60176,1.33537 c 0.39405,0 0.71319,0.46289 0.71319,1.03566 0,0.57278 -0.31914,1.03946 -0.71319,1.03946 -0.39405,0 -0.71319,-0.46668 -0.71319,-1.03946 0,-0.57277 0.31914,-1.03566 0.71319,-1.03566 z" id="path1391"/>
    <path style="fill:#ffffff;fill-opacity:0.25098039;fill-rule:evenodd;stroke:#000000;stroke-width:0;stroke-linecap:butt;stroke-linejoin:miter;stroke-miterlimit:4;stroke-opacity:1" d="m 247.58058,480.94578 c -19.98073,0.48064 -27.93252,11.31887 -30.61215,23.67743 -0.3412,1.07894 -3.04582,-23.71798 30.61215,-23.67743 z" id="path1392"/>
    <path style="fill:#7647a5;fill-opacity:1;fill-rule:evenodd;stroke:#000000;stroke-width:1.875;stroke-linecap:butt;stroke-linejoin:miter;stroke-miterlimit:4;stroke-opacity:1" d="m 220.15834,556.29525 c -7.96864,-9.13544 -12.46255,-31.01731 -9.96624,-39.79053 7.92025,-6.8447 13.5026,-19.17316 8.80588,-24.35736 -29.20132,-2.05834 -39.5573,49.39093 -25.73475,79.17733" id="path1393"/>
    <path style="fill:#ffffff;fill-opacity:0.39430895;fill-rule:evenodd;stroke:#000000;stroke-width:0;stroke-linecap:butt;stroke-linejoin:miter;stroke-miterlimit:4;stroke-opacity:1" d="m 214.45558,494.07078 c -31.85573,9.23064 -27.93252,64.75637 -19.04965,77.42743 -2.3581,5.22697 -4.84167,15.99739 -3.67753,28.24968 0.85164,-16.49771 3.16351,-24.95104 5.55253,-28.32781 -8.65826,-12.96 -11.79582,-67.07735 17.17465,-77.3493 z" id="path1394"/>
  </g>
</svg>